<?xml version="1.0" encoding="UTF-8"?>
<svg xmlns="http://www.w3.org/2000/svg" xmlns:xlink="http://www.w3.org/1999/xlink" width="36pt" height="36pt" viewBox="0 0 36 36" version="1.1">
<g id="surface12459528">
<path style=" stroke:none;fill-rule:nonzero;fill:rgb(20.392157%,59.607843%,85.882353%);fill-opacity:1;" d="M 18 36 C 8.058594 36 0 27.941406 0 18 C 0 8.058594 8.058594 0 18 0 C 27.941406 0 36 8.058594 36 18 C 36 27.941406 27.941406 36 18 36 Z M 18 36 "/>
<path style=" stroke:none;fill-rule:nonzero;fill:rgb(100%,100%,100%);fill-opacity:1;" d="M 20.222656 8.0625 C 18.808594 8.0625 17.585938 8.496094 16.730469 9.34375 C 15.875 10.195312 15.40625 11.445312 15.40625 12.976562 L 15.40625 14.976562 L 12.816406 14.976562 C 12.578125 14.976562 12.382812 15.167969 12.382812 15.40625 L 12.382812 18.863281 C 12.382812 19.101562 12.578125 19.296875 12.816406 19.296875 L 15.40625 19.296875 L 15.40625 27.503906 C 15.40625 27.742188 15.601562 27.9375 15.839844 27.9375 L 19.296875 27.9375 C 19.535156 27.9375 19.726562 27.742188 19.726562 27.503906 L 19.726562 19.296875 L 22.753906 19.296875 C 22.96875 19.296875 23.152344 19.132812 23.179688 18.917969 L 23.613281 15.460938 C 23.628906 15.339844 23.589844 15.214844 23.507812 15.121094 C 23.425781 15.027344 23.308594 14.976562 23.183594 14.976562 L 19.726562 14.976562 L 19.726562 13.246094 C 19.726562 12.765625 20.109375 12.382812 20.59375 12.382812 L 23.183594 12.382812 C 23.421875 12.382812 23.617188 12.191406 23.617188 11.953125 L 23.617188 8.644531 C 23.617188 8.429688 23.457031 8.246094 23.242188 8.21875 C 22.859375 8.167969 21.480469 8.0625 20.222656 8.0625 Z M 20.222656 8.929688 C 21.273438 8.929688 22.292969 9.011719 22.753906 9.054688 L 22.753906 11.519531 L 20.59375 11.519531 C 19.644531 11.519531 18.863281 12.296875 18.863281 13.246094 L 18.863281 15.40625 C 18.863281 15.648438 19.058594 15.839844 19.296875 15.839844 L 22.695312 15.839844 L 22.371094 18.433594 L 19.296875 18.433594 C 19.058594 18.433594 18.863281 18.625 18.863281 18.863281 L 18.863281 27.070312 L 16.273438 27.070312 L 16.273438 18.863281 C 16.273438 18.625 16.078125 18.433594 15.839844 18.433594 L 13.246094 18.433594 L 13.246094 15.839844 L 15.839844 15.839844 C 16.078125 15.839844 16.273438 15.648438 16.273438 15.40625 L 16.273438 12.976562 C 16.273438 11.617188 16.667969 10.625 17.339844 9.957031 C 18.011719 9.292969 18.980469 8.929688 20.222656 8.929688 Z M 20.222656 8.929688 "/>
</g>
</svg>
