<?xml version="1.0" encoding="UTF-8"?>
<svg xmlns="http://www.w3.org/2000/svg" xmlns:xlink="http://www.w3.org/1999/xlink" width="36pt" height="36pt" viewBox="0 0 36 36" version="1.1">
<g id="surface12460867">
<path style=" stroke:none;fill-rule:nonzero;fill:rgb(79.215686%,19.215686%,45.490196%);fill-opacity:1;" d="M 18 36 C 8.058594 36 0 27.941406 0 18 C 0 8.058594 8.058594 0 18 0 C 27.941406 0 36 8.058594 36 18 C 36 27.941406 27.941406 36 18 36 Z M 18 36 "/>
<path style=" stroke:none;fill-rule:nonzero;fill:rgb(100%,100%,100%);fill-opacity:1;" d="M 14.4375 9.289062 C 11.597656 9.289062 9.289062 11.597656 9.289062 14.4375 L 9.289062 21.5625 C 9.289062 24.402344 11.597656 26.710938 14.4375 26.710938 L 21.5625 26.710938 C 24.402344 26.710938 26.710938 24.402344 26.710938 21.5625 L 26.710938 14.4375 C 26.710938 11.597656 24.402344 9.289062 21.5625 9.289062 Z M 14.4375 10.078125 L 21.5625 10.078125 C 23.972656 10.078125 25.921875 12.027344 25.921875 14.4375 L 25.921875 21.5625 C 25.921875 23.972656 23.972656 25.921875 21.5625 25.921875 L 14.4375 25.921875 C 12.027344 25.921875 10.078125 23.972656 10.078125 21.5625 L 10.078125 14.4375 C 10.078125 12.027344 12.027344 10.078125 14.4375 10.078125 Z M 22.753906 12.457031 C 22.316406 12.457031 21.960938 12.8125 21.960938 13.246094 C 21.960938 13.683594 22.316406 14.039062 22.753906 14.039062 C 23.1875 14.039062 23.542969 13.683594 23.542969 13.246094 C 23.542969 12.8125 23.1875 12.457031 22.753906 12.457031 Z M 18 13.644531 C 15.597656 13.644531 13.644531 15.597656 13.644531 18 C 13.644531 20.402344 15.597656 22.355469 18 22.355469 C 20.402344 22.355469 22.355469 20.402344 22.355469 18 C 22.355469 15.597656 20.402344 13.644531 18 13.644531 Z M 18 14.4375 C 19.972656 14.4375 21.5625 16.027344 21.5625 18 C 21.5625 19.972656 19.972656 21.5625 18 21.5625 C 16.027344 21.5625 14.4375 19.972656 14.4375 18 C 14.4375 16.027344 16.027344 14.4375 18 14.4375 Z M 18 14.4375 "/>
</g>
</svg>
