<?xml version="1.0" encoding="UTF-8"?>
<svg xmlns="http://www.w3.org/2000/svg" xmlns:xlink="http://www.w3.org/1999/xlink" width="36pt" height="36pt" viewBox="0 0 36 36" version="1.1">
<g id="surface12091659">
<path style=" stroke:none;fill-rule:nonzero;fill:rgb(0%,46.27451%,70.588235%);fill-opacity:1;" d="M 18 36 C 8.058594 36 0 27.941406 0 18 C 0 8.058594 8.058594 0 18 0 C 27.941406 0 36 8.058594 36 18 C 36 27.941406 27.941406 36 18 36 Z M 18 36 "/>
<path style=" stroke:none;fill-rule:nonzero;fill:rgb(0%,46.27451%,70.588235%);fill-opacity:1;" d="M 28.800781 25.800781 C 28.800781 27.457031 27.457031 28.800781 25.800781 28.800781 L 10.199219 28.800781 C 8.542969 28.800781 7.199219 27.457031 7.199219 25.800781 L 7.199219 10.199219 C 7.199219 8.542969 8.542969 7.199219 10.199219 7.199219 L 25.800781 7.199219 C 27.457031 7.199219 28.800781 8.542969 28.800781 10.199219 Z M 28.800781 25.800781 "/>
<path style=" stroke:none;fill-rule:nonzero;fill:rgb(100%,100%,100%);fill-opacity:1;" d="M 10.800781 15 L 13.800781 15 L 13.800781 25.199219 L 10.800781 25.199219 Z M 12.289062 13.800781 L 12.273438 13.800781 C 11.378906 13.800781 10.800781 13.132812 10.800781 12.300781 C 10.800781 11.449219 11.398438 10.800781 12.308594 10.800781 C 13.222656 10.800781 13.78125 11.449219 13.800781 12.300781 C 13.800781 13.132812 13.222656 13.800781 12.289062 13.800781 Z M 25.199219 25.199219 L 22.199219 25.199219 L 22.199219 19.742188 C 22.199219 18.421875 21.464844 17.523438 20.285156 17.523438 C 19.382812 17.523438 18.898438 18.128906 18.660156 18.714844 C 18.574219 18.925781 18.601562 19.507812 18.601562 19.800781 L 18.601562 25.199219 L 15.601562 25.199219 L 15.601562 15 L 18.601562 15 L 18.601562 16.570312 C 19.03125 15.898438 19.710938 15 21.441406 15 C 23.589844 15 25.199219 16.351562 25.199219 19.363281 Z M 25.199219 25.199219 "/>
</g>
</svg>
