<?xml version="1.0" encoding="UTF-8"?>
<svg xmlns="http://www.w3.org/2000/svg" xmlns:xlink="http://www.w3.org/1999/xlink" width="36pt" height="36pt" viewBox="0 0 36 36" version="1.1">
<g id="surface12461688">
<path style=" stroke:none;fill-rule:nonzero;fill:rgb(11.372549%,59.607843%,90.196078%);fill-opacity:1;" d="M 18 36 C 8.058594 36 0 27.941406 0 18 C 0 8.058594 8.058594 0 18 0 C 27.941406 0 36 8.058594 36 18 C 36 27.941406 27.941406 36 18 36 Z M 18 36 "/>
<path style=" stroke:none;fill-rule:nonzero;fill:rgb(100%,100%,100%);fill-opacity:1;" d="M 25.632812 12.929688 C 25.074219 13.179688 24.46875 13.34375 23.832031 13.421875 C 24.480469 13.039062 24.976562 12.425781 25.210938 11.703125 C 24.605469 12.054688 23.933594 12.316406 23.222656 12.453125 C 22.652344 11.851562 21.835938 11.476562 20.9375 11.476562 C 19.207031 11.476562 17.804688 12.867188 17.804688 14.578125 C 17.804688 14.824219 17.832031 15.058594 17.886719 15.289062 C 15.28125 15.15625 12.972656 13.921875 11.429688 12.042969 C 11.15625 12.5 11.003906 13.039062 11.003906 13.605469 C 11.003906 14.683594 11.558594 15.632812 12.398438 16.191406 C 11.882812 16.175781 11.402344 16.03125 10.976562 15.804688 C 10.976562 15.8125 10.976562 15.828125 10.976562 15.839844 C 10.976562 17.34375 12.058594 18.601562 13.488281 18.886719 C 13.226562 18.957031 12.953125 18.996094 12.667969 18.996094 C 12.464844 18.996094 12.265625 18.972656 12.078125 18.9375 C 12.476562 20.171875 13.632812 21.070312 15 21.097656 C 13.929688 21.925781 12.578125 22.425781 11.109375 22.425781 C 10.859375 22.425781 10.609375 22.410156 10.363281 22.382812 C 11.75 23.257812 13.398438 23.773438 15.167969 23.773438 C 20.929688 23.773438 24.082031 19.042969 24.082031 14.9375 C 24.082031 14.804688 24.078125 14.671875 24.070312 14.539062 C 24.683594 14.105469 25.214844 13.554688 25.632812 12.929688 "/>
</g>
</svg>
